<?xml version="1.0" encoding="utf-8"?>
<!-- Generator: Adobe Illustrator 23.0.0, SVG Export Plug-In . SVG Version: 6.00 Build 0)  -->
<svg version="1.1" id="Layer_1" xmlns="http://www.w3.org/2000/svg" xmlns:xlink="http://www.w3.org/1999/xlink" x="0px" y="0px"
	 viewBox="0 0 512 512" style="enable-background:new 0 0 512 512;" xml:space="preserve">
<style type="text/css">
	.st0{fill:#12D67D;}
	.st1{fill:#FFFFFF;}
</style>
<circle class="st0" cx="256" cy="256.9" r="256"/>
<g>
	<path class="st1" d="M201.2,368.8c-0.3,0-0.5,0-0.8,0c-7.8-0.3-14.9-4.3-19.1-10.9c-26.1-40.9-71.8-79-72.2-79.4
		c-10-8.3-11.4-23.2-3.1-33.2c8.3-10,23.1-11.4,33.2-3.1c1.7,1.4,34.8,29,63.3,64.6c28.9-32.6,88.9-93.2,182.6-153.4
		c10.9-7,25.5-3.9,32.6,7.1c7,10.9,3.9,25.5-7.1,32.6c-127.2,81.8-189.8,165.3-190.4,166.2C215.7,365.3,208.7,368.8,201.2,368.8z"/>
</g>
</svg>
