<?xml version="1.0" encoding="utf-8"?>
<!-- Generator: Adobe Illustrator 23.0.0, SVG Export Plug-In . SVG Version: 6.00 Build 0)  -->
<svg version="1.1" id="Layer_1" xmlns="http://www.w3.org/2000/svg" xmlns:xlink="http://www.w3.org/1999/xlink" x="0px" y="0px"
	 viewBox="0 0 512 512" style="enable-background:new 0 0 512 512;" xml:space="preserve">
<style type="text/css">
	.st0{fill:#583EE2;}
	.st1{fill:#F9FAFE;}
</style>
<circle class="st0" cx="255.9" cy="256.1" r="255.9"/>
<path class="st1" d="M370.2,334.2h-12.9L344,294.4c-4.1-12.3-15.7-20.7-28.7-20.7h-35.9c-11.1,0-20.2-9-20.2-20.2h60.5
	c5.6,0,10.1-4.5,10.1-10.1c0-5.6-4.5-10.1-10.1-10.1h-60.5v-30.3c-0.1-0.5-0.2-0.9-0.3-1.4c21.6-5.4,34.7-27.3,29.3-49
	c-5.4-21.6-27.3-34.7-49-29.3c-21.6,5.4-34.7,27.3-29.3,49c3.6,14.4,14.9,25.7,29.3,29.3c-0.1,0.4-0.2,0.9-0.3,1.4v50.4
	c0,21.9,17.6,39.8,39.5,40.3c-5.5,33-36.7,55.2-69.7,49.7c-33-5.5-55.2-36.7-49.7-69.7c4.3-26,25-46.2,51.1-49.9
	c5.5-0.8,9.4-5.9,8.6-11.4s-5.9-9.4-11.4-8.6c-44.1,6.3-74.8,47.2-68.4,91.4c6.3,44.1,47.2,74.8,91.4,68.4
	c36-5.2,64.1-33.7,68.6-69.8h16.4c4.3,0,8.2,2.8,9.6,6.9l15.6,46.7c1.4,4.1,5.2,6.9,9.6,6.9h20.2c5.6,0,10.1-4.5,10.1-10.1
	S375.8,334.2,370.2,334.2z M229,162.7c0-11.1,9-20.2,20.2-20.2c11.1,0,20.2,9,20.2,20.2s-9,20.2-20.2,20.2
	C238,182.9,229,173.9,229,162.7z"/>
</svg>
