<?xml version="1.0" encoding="utf-8"?>
<!-- Generator: Adobe Illustrator 23.0.0, SVG Export Plug-In . SVG Version: 6.00 Build 0)  -->
<svg version="1.1" id="Layer_1" xmlns="http://www.w3.org/2000/svg" xmlns:xlink="http://www.w3.org/1999/xlink" x="0px" y="0px"
	 viewBox="0 0 512 512" style="enable-background:new 0 0 512 512;" xml:space="preserve">
<style type="text/css">
	.st0{fill:#FFDE00;}
	.st1{fill:#EE161F;}
	.st2{fill:#004DA3;}
</style>
<path class="st0" d="M339,512H173C77.5,512,0,434.5,0,339V173C0,77.5,77.5,0,173,0h166c95.5,0,173,77.5,173,173v166
	C512,434.5,434.5,512,339,512z"/>
<path class="st1" d="M136.5,512h239c75.4,0,136.5-61.1,136.5-136.5v0c0-0.8-0.7-1.5-1.5-1.5H1.5c-0.8,0-1.5,0.7-1.5,1.5v0
	C0,450.9,61.1,512,136.5,512z"/>
<rect y="236" class="st2" width="512" height="138"/>
</svg>
