<?xml version="1.0" encoding="utf-8"?>
<!-- Generator: Adobe Illustrator 18.1.1, SVG Export Plug-In . SVG Version: 6.00 Build 0)  -->
<svg version="1.1" id="Layer_1" xmlns="http://www.w3.org/2000/svg" xmlns:xlink="http://www.w3.org/1999/xlink" x="0px" y="0px"
	 viewBox="-310 -30.5 512 512" enable-background="new -310 -30.5 512 512" xml:space="preserve">
<path fill="#583EE2" d="M82.4,481.6h-272.8c-66.1,0-119.7-53.6-119.7-119.7V89.2c0-66.1,53.6-119.7,119.7-119.7H82.4
	c66.1,0,119.7,53.6,119.7,119.7v272.8C202.1,428,148.5,481.6,82.4,481.6z"/>
<path fill="#FFFFFF" d="M-54,61.4c-90,0-163,73-163,163s73,162.9,163,162.9s163-73,163-162.9C108.9,134.4,36,61.5-54,61.4z
	 M63.4,156.4H19.7C9.9,133.7-3,112.5-18.6,93.4C16,102.8,45.4,125.4,63.4,156.4z M7.1,224.3c-0.1,13.8-2.3,27.6-6.5,40.7h-109.3
	c-4.2-13.2-6.4-26.9-6.5-40.7c0.1-13.8,2.3-27.6,6.5-40.7H0.6C4.8,196.8,7,210.5,7.1,224.3z M-97.8,292.2h87.5
	C-21.8,315-36.5,336-54,354.5C-71.5,336-86.2,315-97.8,292.2z M-97.8,156.4c11.5-22.8,26.3-43.7,43.8-62.3
	c17.5,18.6,32.2,39.5,43.8,62.3H-97.8z M-89.3,93.4c-15.6,19.1-28.6,40.4-38.4,63.1h-43.7C-153.4,125.4-123.9,102.8-89.3,93.4z
	 M-183.5,183.6h46.7c-3.5,13.3-5.3,27-5.4,40.7c0.1,13.8,1.9,27.4,5.4,40.7h-46.7C-191.9,238.6-191.9,210.1-183.5,183.6z
	 M-171.4,292.2h43.7c9.8,22.7,22.7,43.9,38.4,63.1C-123.9,345.9-153.4,323.2-171.4,292.2z M-18.6,355.3
	c15.6-19.1,28.5-40.4,38.3-63.1h43.7C45.4,323.2,16,345.9-18.6,355.3L-18.6,355.3z M75.5,265.1H28.8c3.5-13.3,5.3-27,5.4-40.7
	c-0.1-13.8-1.9-27.4-5.4-40.7h46.7C83.9,210.1,83.9,238.6,75.5,265.1L75.5,265.1z"/>
</svg>
