<?xml version="1.0" encoding="utf-8"?>
<!-- Generator: Adobe Illustrator 23.0.0, SVG Export Plug-In . SVG Version: 6.00 Build 0)  -->
<svg version="1.1" id="Layer_1" xmlns="http://www.w3.org/2000/svg" xmlns:xlink="http://www.w3.org/1999/xlink" x="0px" y="0px"
	 viewBox="0 0 512 512" style="enable-background:new 0 0 512 512;" xml:space="preserve">
<style type="text/css">
	.st0{fill:#12D57C;}
	.st1{fill:#FFFFFF;}
</style>
<g>
	<path class="st0" d="M376.5,511.9H135.5C60.7,511.9,0,451.3,0,376.4V135.5C0,60.6,60.7-0.1,135.5-0.1h240.9
		C451.3-0.1,512,60.6,512,135.5v240.9C512,451.3,451.3,511.9,376.5,511.9z"/>
	<circle class="st1" cx="256" cy="255.9" r="146.1"/>
	<g>
		<path class="st0" d="M242.1,333.5c-3.9-3.8-5.9-8.5-5.9-14.1c0-5.6,2-10.3,5.9-14.1c3.9-3.8,9-5.7,15.1-5.7c6,0,10.9,1.9,14.7,5.7
			c3.9,3.8,5.8,8.5,5.8,14.1c0,5.6-1.9,10.3-5.8,14.1c-3.9,3.8-8.8,5.7-14.7,5.7C251.1,339.2,246.1,337.3,242.1,333.5z M274.6,165.9
			l-3.9,116.7h-28.5l-4.1-116.7H274.6z"/>
	</g>
</g>
</svg>
