<?xml version="1.0" encoding="utf-8"?>
<!-- Generator: Adobe Illustrator 18.1.1, SVG Export Plug-In . SVG Version: 6.00 Build 0)  -->
<svg version="1.1" id="Layer_1" xmlns="http://www.w3.org/2000/svg" xmlns:xlink="http://www.w3.org/1999/xlink" x="0px" y="0px"
	 viewBox="-310 -30.5 512 512" enable-background="new -310 -30.5 512 512" xml:space="preserve">
<path fill="#583EE2" d="M-19.1,459.9c-10.9,0.5-20.2-8-20.6-18.9c-0.5-10.9,8-20.2,18.9-20.6c108.7-9.9,188.7-106.1,178.8-214.8
	C148,96.9,51.8,16.9-56.9,26.8c-94.9,8.7-170.2,83.9-178.8,178.9c-1,10.9-10.6,18.9-21.5,17.9c-10.9-1-18.9-10.6-17.9-21.5
	c0,0,0,0,0,0C-263.2,71.7-147.9-24.5-17.4-12.6C104.8-1.6,198.4,100.9,198.3,223.7c0.6,122.9-93.2,225.6-215.6,236.2
	C-17.9,459.9-18.5,459.9-19.1,459.9z"/>
<path fill="#583EE2" d="M-38.8,105.1c-10.9,0-19.8,8.8-19.8,19.8v98.8c0,5.2,2.1,10.3,5.8,14l59.3,59.3c7.9,7.6,20.4,7.4,27.9-0.5
	c7.4-7.7,7.4-19.8,0-27.5l-53.5-53.5v-90.6C-19.1,113.9-27.9,105.1-38.8,105.1L-38.8,105.1z"/>
<path fill="#583EE2" d="M-171.3,260.6c-5.4-9.7-12.9-15-21.1-15c-8.1,0-15.6,5.3-21,15l-91.1,162.7c-5.4,9.6-6,18.9-1.8,26.1
	c4.2,7.2,12.7,11.2,23.9,11.2h180.1c11.2,0,19.6-4,23.9-11.2c4.2-7.2,3.6-16.5-1.8-26.1L-171.3,260.6z"/>
<path fill="#FFFFFF" d="M-192.3,395.8c4.4,0,8.3-5.4,8.7-12l4.6-78.1c0.4-6.6-4.7-12-11.3-12h-4c-6.6,0-11.7,5.4-11.3,12l4.6,78.1
	C-200.6,390.4-196.7,395.8-192.3,395.8"/>
<circle fill="#FFFFFF" cx="-192.3" cy="420.5" r="13.9"/>
</svg>
