<?xml version="1.0" encoding="utf-8"?>
<!-- Generator: Adobe Illustrator 23.0.0, SVG Export Plug-In . SVG Version: 6.00 Build 0)  -->
<svg version="1.1" id="Capa_1" xmlns="http://www.w3.org/2000/svg" xmlns:xlink="http://www.w3.org/1999/xlink" x="0px" y="0px"
	 viewBox="0 0 16.6 16.6" style="enable-background:new 0 0 16.6 16.6;" xml:space="preserve">
<style type="text/css">
	.st0{fill:#FF5352;}
	.st1{fill:#FFFFFF;}
</style>
<g>
	<path class="st0" d="M9.8,1.7C9.4,1,8.9,0.6,8.3,0.6C7.7,0.6,7.2,1,6.8,1.7L0.3,13.2c-0.4,0.7-0.4,1.3-0.1,1.9
		c0.3,0.5,0.9,0.8,1.7,0.8h12.8c0.8,0,1.4-0.3,1.7-0.8c0.3-0.5,0.3-1.2-0.1-1.9L9.8,1.7z"/>
	<g>
		<path class="st1" d="M8.3,12.3c-0.5,0-0.9,0.4-0.9,0.9c0,0.5,0.4,0.9,0.9,0.9c0.5,0,0.9-0.4,0.9-0.9C9.2,12.7,8.8,12.3,8.3,12.3z"
			/>
		<path class="st1" d="M8.3,11.3c0.3,0,0.6-0.4,0.6-0.9l0.3-5.6C9.3,4.4,8.9,4,8.4,4H8.2C7.7,4,7.3,4.4,7.4,4.9l0.3,5.6
			C7.7,10.9,8,11.3,8.3,11.3z"/>
	</g>
</g>
</svg>
