<?xml version="1.0" encoding="utf-8"?>
<!-- Generator: Adobe Illustrator 23.0.0, SVG Export Plug-In . SVG Version: 6.00 Build 0)  -->
<svg version="1.1" id="Capa_1" xmlns="http://www.w3.org/2000/svg" xmlns:xlink="http://www.w3.org/1999/xlink" x="0px" y="0px"
	 viewBox="0 0 16.6 16.6" style="enable-background:new 0 0 16.6 16.6;" xml:space="preserve">
<style type="text/css">
	.st0{fill:#12D67D;}
	.st1{fill:#FFFFFF;}
</style>
<g>
	<circle class="st0" cx="8.3" cy="8.3" r="8.3"/>
	<g>
		<path class="st1" d="M6.6,11.4C6.5,11.4,6.5,11.4,6.6,11.4c-0.2,0-0.5-0.1-0.6-0.3C5.2,9.9,3.9,8.8,3.9,8.8
			c-0.3-0.2-0.3-0.7-0.1-1c0.2-0.3,0.7-0.3,1-0.1c0,0,1,0.8,1.8,1.9C7.4,8.7,9.2,7,11.9,5.2c0.3-0.2,0.7-0.1,0.9,0.2
			c0.2,0.3,0.1,0.7-0.2,0.9c-3.7,2.4-5.5,4.8-5.5,4.8C7,11.3,6.8,11.4,6.6,11.4z"/>
	</g>
</g>
</svg>
