<?xml version="1.0" encoding="utf-8"?>
<!-- Generator: Adobe Illustrator 18.1.1, SVG Export Plug-In . SVG Version: 6.00 Build 0)  -->
<svg version="1.1" id="Layer_1" xmlns="http://www.w3.org/2000/svg" xmlns:xlink="http://www.w3.org/1999/xlink" x="0px" y="0px"
	 viewBox="0 0 163.5 163.5" enable-background="new 0 0 163.5 163.5" xml:space="preserve">
<rect x="0" y="0" fill="#FEFEFE" width="163.5" height="163.5"/>
<circle fill="#14A800" cx="81.7" cy="81.7" r="81.7"/>
<path fill="#FFFFFF" d="M40.2,55.8c15-7,31.3-0.6,38.6,14.9l0.9,1.9c0.4,0.8,0,1.8-0.8,2.2l-39,18.2c-1,0.4-1.3,1.7-0.6,2.5
	c5.6,6.6,14.7,8.9,22.8,5.1c5.6-2.6,9.4-7,11.1-13.2c0.2-0.8,1.1-1.3,1.9-1.1l6.8,1.4c0.9,0.2,1.5,1.1,1.2,2
	c-2.3,8.6-7.9,15.7-16.8,19.9c-15.6,7.3-33,1.3-40.2-14.2C19.2,80.6,25,62.9,40.2,55.8z M36.4,84.6l27.8-13c1-0.5,1.3-1.8,0.5-2.6
	c-5.5-5.8-13.5-7.5-20.6-4.2c-7,3.3-10.9,10.5-10.1,18.5C34.2,84.5,35.4,85.1,36.4,84.6z"/>
<path fill="#FFFFFF" d="M122.7,99.5c5.5-2.6,9.2-7.3,10.7-13c0.2-0.8,1-1.3,1.9-1.2l6.9,1.4c0.9,0.2,1.5,1.1,1.3,2
	c-2.2,8.4-7.3,15.5-16.5,19.8c-15.8,7.4-33.6,0.9-40.6-14.1c-7-15.1-0.6-32.9,15.2-40.2c9.2-4.3,17.9-3.6,25.8,0.2
	c0.9,0.4,1.2,1.4,0.7,2.3l-3.4,6.1c-0.4,0.7-1.3,1-2.1,0.7c-5.2-2.4-11.2-2.7-16.8-0.1c-9.8,4.6-14,16.1-9.2,26.3
	C101.3,99.7,112.9,104.1,122.7,99.5z"/>
</svg>
