<?xml version="1.0" encoding="utf-8"?>
<!-- Generator: Adobe Illustrator 18.1.1, SVG Export Plug-In . SVG Version: 6.00 Build 0)  -->
<svg version="1.1" id="Layer_1" xmlns="http://www.w3.org/2000/svg" xmlns:xlink="http://www.w3.org/1999/xlink" x="0px" y="0px"
	 viewBox="0 0 581.1 79.9" enable-background="new 0 0 581.1 79.9" xml:space="preserve">
<rect x="0" y="0" fill="#FEFEFE" width="581.1" height="79.9"/>
<g>
	<path fill="#14A700" d="M311.1,58.5c-1.7,2.6-3.3,5.2-5.1,7.7c-7.5,10.8-18.1,15.2-30.9,13.2c-12-1.9-20.1-9.2-23.3-21.1
		c-3.1-11.6,0.1-21.7,9.1-29.5c9.3-8.1,20-10,31.7-5.4c2.2,0.9,2.9,2.1,1.4,4.1c-0.2,0.3-0.3,0.6-0.5,0.8c-2.7,4.8-2.7,4.8-8.1,3.4
		c-9.2-2.4-18.7,2.4-22.3,11.2c-3.6,8.8,0.3,19.5,8.9,24.3c8.2,4.6,18.4,2.3,24.1-5.1c6.1-7.9,11.4-16.3,17.3-24.3
		c5.9-8.1,13.6-13.6,23.5-15.5c12.8-2.5,24.1,6.7,24.5,19.7c0.3,11.2,0.1,22.5,0.3,33.7c0,2.3-0.8,3.2-3.2,3.2
		c-9.7-0.2-8.2,1.3-8.3-8c-0.1-8.4,0-16.7,0-25.1c0-8.5-5.4-14.2-13.2-14.2c-7.9,0-13.7,6-13.7,14.3c0,10,0,19.9,0.1,29.9
		c0,2.2-0.4,3.4-3,3.1c-1.8-0.2-3.7-0.2-5.5,0c-2.7,0.3-3.3-1-3.2-3.4c0.1-5.7,0-11.3,0-17C311.5,58.7,311.3,58.6,311.1,58.5z"/>
	<path fill="#14A700" d="M527.2,79.6c-5.4,0-10.1,0-14.9,0c-0.9,0-1.4-0.2-2.1-1c-4.1-5-8.5-9.9-12.6-14.9c-1.1-1.4-1.7-0.8-2.7,0
		c-4.2,3.6-7.6,8.1-12.4,11.1c-18.4,11.4-41.2,2.3-45.6-18.5c-2.5-11.7,1.3-21.7,10.6-29.1c9.2-7.4,19.6-9,30.7-4.4
		c2,0.8,2.6,2,1.4,3.9c-0.5,0.7-0.9,1.4-1.2,2.2c-1.2,3.2-2.8,3.9-6.3,2.6c-8.2-3-17.3,0.5-21.8,7.8c-4.7,7.4-3.6,17.3,2.5,23.7
		c6.4,6.8,15.5,8.3,23.4,3.8c7-4.1,12.3-10.2,18.2-15.7c7.7-7.3,15.3-14.6,23-22c1.8-1.8,3.6-3.7,5.3-5.5c1.6-1.7,3.1-1.7,4.6,0
		c0.7,0.8,1.5,1.5,2.3,2.3c1.6,1.7,1.6,3.2-0.2,4.9c-7.3,6.8-14.4,13.7-21.6,20.6c-3.1,3-3.2,2.9-0.4,6
		C513.7,64.7,520.2,71.9,527.2,79.6z"/>
	<path d="M0,49.8c0-14,9.5-25.6,23.1-28.4c13.2-2.7,26.4,4.6,31.9,17.5c0.9,2.2,0.4,3.2-1.7,4.2c-11.7,5.4-23.4,10.9-35.1,16.3
		c-3.4,1.6-3.4,2.1-0.8,4.6c9.7,9.4,25.8,5.7,30.8-7.2c1.1-3,2.4-3.6,5.3-2.9c6.4,1.4,6.5,1.4,3.8,7.6
		c-5.6,12.8-20.6,20.4-34.4,17.4C9.5,76,0,63.9,0,49.8z"/>
	<path fill="#14A700" d="M369.4,49.9c0-14.1,9.4-25.7,23-28.5c13.2-2.8,26.3,4.4,31.9,17.5c0.9,2.2,0.5,3.2-1.6,4.2
		c-11.6,5.3-23.2,10.8-34.8,16.2c-3.8,1.8-3.9,2.4-0.7,5.2c9.8,9,25.7,5,30.5-7.8c1.1-3,2.3-3.4,5.1-2.7c6.4,1.4,6.6,1.6,4,7.6
		c-5.6,12.8-20.6,20.4-34.4,17.5C378.9,76,369.4,64,369.4,49.9z"/>
	<path fill="#020202" d="M231,73.7c-5.8,4.1-12.1,6.2-19.2,6.1c-15.1-0.2-27.7-11.8-29-27.1c-1.3-14.6,9.4-28.4,24-31
		c19.3-3.4,35.4,10.2,35.6,30c0.1,8.1-0.1,16.3,0,24.4c0,2.6-0.9,3.5-3.3,3.2c-0.5-0.1-1.1,0-1.6,0C231.7,79.3,231.7,79.3,231,73.7z
		"/>
	<path d="M174.5,50.5c0,8.2-0.1,16.5,0,24.7c0,2.4-0.6,3.6-3.3,3.3c-1.6-0.2-3.2-0.1-4.8,0c-1.8,0.1-3.1,0-3.5-2.5
		c-0.3-2.5-2-1.2-3.3-0.3c-7.3,4.8-15,5.5-22.9,1.9c-8.3-3.8-11.8-10.8-12-19.6c-0.2-10.9,0-21.8-0.1-32.8c0-2.1,0.7-3.1,3-3.1
		c10.5,0.3,8.4-1.5,8.5,8.3c0.1,8.5,0,16.9,0,25.4c0,8.3,5.3,13.9,13.1,13.9c7.8,0,13.7-5.7,13.7-13.8c0.1-10.1,0.1-20.1,0-30.2
		c0-2.9,0.9-3.6,3.7-3.6c7.8,0.1,7.8,0,7.8,7.8C174.5,36.8,174.5,43.6,174.5,50.5z"/>
	<path fill="#14A700" d="M560,79.8c-11.1-0.1-19.6-5.4-23.2-14.5c-1.4-3.5-1-4.2,2.7-4.2c1.1,0,2.2,0.1,3.2,0c2.5-0.3,3.9,0.5,5,3.1
		c3,6.4,13.9,8.8,19.6,4.7c3.9-2.9,3.4-8.3-1.1-10.8c-3.4-1.9-7.3-2.3-11-3.3c-2.9-0.8-5.8-1.4-8.6-2.6c-6.2-2.7-10-7.2-10.1-14.2
		c0-6.9,3.8-12.5,10.3-15.2c12.2-5.1,26.8,0.3,31.5,11.7c2,4.8,1.6,5.3-3.4,5.4c-1.2,0-2.4-0.1-3.5,0c-1.6,0.1-2.4-0.5-3.1-2
		c-2.6-5.8-8.2-8.7-14.4-7.5c-3,0.6-5.4,2.1-5.9,5.4c-0.5,3.4,1.2,5.5,4.1,6.9c4,1.9,8.4,2.4,12.6,3.7c2.3,0.7,4.7,1.4,7,2.4
		c5.7,2.6,9.4,6.8,9.6,13.6c0.1,6.9-3,11.8-9,15C568.3,79.2,564.2,79.9,560,79.8z"/>
	<path d="M63.6,49.5c0-21.2,22.2-35.9,41.6-27.7c2.5,1,3,2.1,1.6,4.5c-3,5.3-2.9,5.3-8.7,4c-10.3-2.4-20.8,4.1-23,14.3
		C72.9,55.3,80,66.2,90.6,68.1c9.3,1.7,18-3.2,21.3-12.3c0.9-2.6,1.9-3.2,4.6-2.6c7.1,1.6,7.3,1.7,4.2,8.3
		c-5.9,12.7-20.5,19.8-34.2,16.6C73,75,63.6,63.4,63.6,49.5z"/>
	<path fill="#15A801" d="M484.8,46.5c0-1.9,0-3.2,0-4.4c0-12.6,0-25.3,0-37.9c0-2.3,0.5-3.2,3-3.2c8.4,0.1,8.4-0.1,8.4,8.2
		c0,7.7-0.1,15.4,0.1,23.1c0,2.4-0.7,4-2.4,5.6C490.9,40.6,488.2,43.4,484.8,46.5z"/>
	<path fill="#15A802" d="M312,23.2c0-7.4,0-14.3,0-21.2c0-1.2,0.6-1.7,1.8-1.7c0.1,0,0.2,0,0.3,0c9.2-0.7,8.9-0.7,9.3,8.3
		c0.2,4.9-0.6,8.5-5.6,10.5C315.8,19.9,314.2,21.6,312,23.2z"/>
	<path fill="#FEFEFE" d="M10.6,48.4c0.5-7.4,3.7-12.9,10.4-15.9c6.6-2.9,12.7-1.6,18.2,2.9c2.7,2.2,2.6,3-0.5,4.4
		c-8,3.8-16,7.5-24,11.2C11.4,52.6,10.5,51.9,10.6,48.4z"/>
	<path fill="#FEFEFE" d="M380.6,52.6c-1.9-8.7,2.1-16.7,9.7-20.1c7.5-3.3,15.9-1,20.8,5.8C401,43.1,390.9,47.8,380.6,52.6z"/>
	<path fill="#FEFEFE" d="M212.6,70c-11.5,0.3-20.3-9.9-19.9-19.8c0.4-10.8,9-19.4,20.1-19.3c10.8,0,19.8,8.8,19.8,19.4
		C232.6,61.4,223.8,70,212.6,70z"/>
</g>
</svg>
