<?xml version="1.0" encoding="utf-8"?>
<!-- Generator: Adobe Illustrator 18.1.1, SVG Export Plug-In . SVG Version: 6.00 Build 0)  -->
<svg version="1.1" id="Bold" xmlns="http://www.w3.org/2000/svg" xmlns:xlink="http://www.w3.org/1999/xlink" x="0px" y="0px"
	 viewBox="-49 141 512 512" enable-background="new -49 141 512 512" xml:space="preserve">
<path d="M-16.6,272.7c8.5,0,16.6,3.4,22.6,9.4l163.8,163.5c20.8,20.8,54.6,20.8,75.4-0.1c0,0,0,0,0,0l163.3-163.6
	c12.7-12.3,33-12,45.2,0.7c12,12.4,12,32,0.1,44.5L290.7,490.6c-45.8,45.8-120,45.9-165.9,0.2L-39.1,327.3
	c-12.5-12.5-12.5-32.8,0-45.3C-33.2,276-25,272.7-16.6,272.7z"/>
</svg>
